<svg xmlns="http://www.w3.org/2000/svg" style="display:none">
  <symbol id="skill-html5" viewBox="0 0 128 128"><path fill="#E44D26" d="M19.037 113.876L9.032 1.661h109.936l-10.016 112.198-45.019 12.48z"/><path fill="#F16529" d="M64 116.8l36.378-10.086 8.559-95.878H64z"/><path fill="#EBEBEB" d="M64 52.455H45.788L44.53 38.361H64V24.599H29.489l.33 3.692 3.382 37.927H64zm0 35.743l-.061.017-15.327-4.14-.979-10.975H33.816l1.928 21.609 28.193 7.826.063-.017z"/><path fill="#fff" d="M63.952 52.455v13.763h16.947l-1.597 17.849-15.35 4.143v14.319l28.215-7.82.207-2.325 3.234-36.233.335-3.696h-3.708zm0-27.856v13.762h33.244l.276-3.092.628-6.978.329-3.692z"/></symbol>
  <symbol id="skill-css3" viewBox="0 0 128 128"><path fill="#1572B6" d="M18.814 114.123L8.76 1.352h110.48l-10.064 112.754-45.243 12.543-45.119-12.526z"/><path fill="#33A9DC" d="M64.001 117.062l36.559-10.136 8.601-96.354h-45.16v106.49z"/><path fill="#fff" d="M64.001 51.429h18.302l1.264-14.163H64.001V23.435h34.682l-.332 3.711-3.4 38.114h-30.95V51.429z"/><path fill="#EBEBEB" d="M64.083 87.349l-.061.018-15.403-4.159-.985-11.031H33.752l1.937 21.717 28.331 7.863.063-.018v-14.39z"/><path fill="#fff" d="M81.127 64.675l-1.666 18.522-15.426 4.164v14.39l28.354-7.858.208-2.337 2.406-26.881H81.127z"/><path fill="#EBEBEB" d="M64.048 23.435v13.831H30.64l-.277-3.108-.63-7.012-.331-3.711h34.646zm-.047 27.996v13.831H48.792l-.277-3.108-.631-7.012-.33-3.711h16.447z"/></symbol>
  <symbol id="skill-javascript" viewBox="0 0 128 128"><path fill="#F0DB4F" d="M1.408 1.408h125.184v125.185H1.408z"/><path fill="#323330" d="M116.347 96.736c-.917-5.711-4.641-10.508-15.672-14.981-3.832-1.761-8.104-3.022-9.377-5.926-.452-1.69-.512-2.642-.226-3.665.821-3.32 4.784-4.355 7.925-3.403 2.023.678 3.938 2.237 5.093 4.724 5.402-3.498 5.391-3.475 9.163-5.879-1.381-2.141-2.118-3.129-3.022-4.045-3.249-3.629-7.676-5.498-14.756-5.355l-3.688.477c-3.534.893-6.902 2.748-8.877 5.235-5.926 6.724-4.236 18.492 2.975 23.335 7.104 5.332 17.54 6.545 18.873 11.531 1.297 6.104-4.486 8.08-10.234 7.378-4.236-.881-6.592-3.034-9.139-6.949-4.688 2.713-4.688 2.713-9.508 5.485 1.143 2.499 2.344 3.63 4.26 5.795 9.068 9.198 31.76 8.746 35.83-5.176.165-.478 1.261-3.666.38-8.581zM69.462 58.943H57.753l-.048 30.272c0 6.438.333 12.34-.714 14.149-1.713 3.558-6.152 3.117-8.175 2.427-2.059-1.012-3.106-2.451-4.319-4.485-.333-.584-.583-1.036-.667-1.071l-9.52 5.83c1.583 3.249 3.915 6.069 6.902 7.901 4.462 2.678 10.459 3.499 16.731 2.059 4.082-1.189 7.604-3.652 9.448-7.401 2.666-4.915 2.094-10.864 2.07-17.444.06-10.735.001-21.468.001-32.237z"/></symbol>
  <symbol id="skill-react" viewBox="0 0 128 128"><g fill="#61DAFB"><circle cx="64" cy="64" r="11.4"/><path d="M107.3 45.2c-2.2-.8-4.5-1.6-6.9-2.3.6-2.4 1.1-4.8 1.5-7.1 2.1-13.2-.2-22.5-6.6-26.1-1.9-1.1-4-1.6-6.4-1.6-7 0-15.9 5.2-24.9 13.9-9-8.7-17.9-13.9-24.9-13.9-2.4 0-4.5.5-6.4 1.6-6.4 3.7-8.7 13-6.6 26.1.4 2.3.9 4.7 1.5 7.1-2.4.7-4.7 1.4-6.9 2.3C8.2 50 1.4 56.6 1.4 64s6.9 14 19.3 18.8c2.2.8 4.5 1.6 6.9 2.3-.6 2.4-1.1 4.8-1.5 7.1-2.1 13.2.2 22.5 6.6 26.1 1.9 1.1 4 1.6 6.4 1.6 7.1 0 16-5.2 24.9-13.9 9 8.7 17.9 13.9 24.9 13.9 2.4 0 4.5-.5 6.4-1.6 6.4-3.7 8.7-13 6.6-26.1-.4-2.3-.9-4.7-1.5-7.1 2.4-.7 4.7-1.4 6.9-2.3 12.5-4.8 19.3-11.4 19.3-18.8s-6.8-14-19.3-18.8zM92.5 14.7c4.1 2.4 5.5 9.8 3.8 20.3-.3 2.1-.8 4.3-1.4 6.6-5.2-1.2-10.7-2-16.5-2.5-3.4-4.8-6.9-9.1-10.4-13 7.4-7.3 14.9-12.3 21-12.3 1.3 0 2.5.3 3.5.9zM81.3 74c-1.8 3.2-3.9 6.4-6.1 9.6-3.7.3-7.4.4-11.2.4-3.9 0-7.6-.1-11.2-.4-2.2-3.2-4.2-6.4-6-9.6-1.9-3.3-3.7-6.7-5.3-10 1.6-3.3 3.4-6.7 5.3-10 1.8-3.2 3.9-6.4 6.1-9.6 3.7-.3 7.4-.4 11.2-.4 3.9 0 7.6.1 11.2.4 2.2 3.2 4.2 6.4 6 9.6 1.9 3.3 3.7 6.7 5.3 10-1.7 3.3-3.4 6.6-5.3 10zm8.3-3.3c1.5 3.5 2.7 6.9 3.8 10.3-3.4.8-7 1.4-10.8 1.9 1.2-1.9 2.5-3.9 3.6-6 1.2-2.1 2.3-4.2 3.4-6.2zM64 97.8c-2.4-2.6-4.7-5.4-6.9-8.3 2.3.1 4.6.2 6.9.2 2.3 0 4.6-.1 6.9-.2-2.2 2.9-4.5 5.7-6.9 8.3zm-18.6-15c-3.8-.5-7.4-1.1-10.8-1.9 1.1-3.3 2.3-6.8 3.8-10.3 1.1 2 2.2 4.1 3.4 6.1 1.2 2.2 2.4 4.1 3.6 6.1zm-7-25.5c-1.5-3.5-2.7-6.9-3.8-10.3 3.4-.8 7-1.4 10.8-1.9-1.2 1.9-2.5 3.9-3.6 6-1.2 2.1-2.3 4.2-3.4 6.2zM64 30.2c2.4 2.6 4.7 5.4 6.9 8.3-2.3-.1-4.6-.2-6.9-.2-2.3 0-4.6.1-6.9.2 2.2-2.9 4.5-5.7 6.9-8.3zm22.2 21l-3.6-6c3.8.5 7.4 1.1 10.8 1.9-1.1 3.3-2.3 6.8-3.8 10.3-1.1-2.1-2.2-4.2-3.4-6.2zM31.7 35c-1.7-10.5-.3-17.9 3.8-20.3 1-.6 2.2-.9 3.5-.9 6 0 13.5 4.9 21 12.3-3.5 3.8-7 8.2-10.4 13-5.8.5-11.3 1.4-16.5 2.5-.6-2.3-1-4.5-1.4-6.6zM7 64c0-4.7 5.7-9.7 15.7-13.4 2-.8 4.2-1.5 6.4-2.1 1.6 5 3.6 10.3 6 15.6-2.4 5.3-4.5 10.5-6 15.5C15.3 75.6 7 69.6 7 64zm28.5 49.3c-4.1-2.4-5.5-9.8-3.8-20.3.3-2.1.8-4.3 1.4-6.6 5.2 1.2 10.7 2 16.5 2.5 3.4 4.8 6.9 9.1 10.4 13-7.4 7.3-14.9 12.3-21 12.3-1.3 0-2.5-.3-3.5-.9zM96.3 93c1.7 10.5.3 17.9-3.8 20.3-1 .6-2.2.9-3.5.9-6 0-13.5-4.9-21-12.3 3.5-3.8 7-8.2 10.4-13 5.8-.5 11.3-1.4 16.5-2.5.6 2.3 1 4.5 1.4 6.6zm9-15.6c-2 .8-4.2 1.5-6.4 2.1-1.6-5-3.6-10.3-6-15.6 2.4-5.3 4.5-10.5 6-15.5 13.8 4 22.1 10 22.1 15.6 0 4.7-5.8 9.7-15.7 13.4z"/></g></symbol>
  <symbol id="skill-nextjs" viewBox="0 0 128 128"><circle cx="64" cy="64" r="64"/><path fill="url(#skill-nextjs-a)" d="M106.317 112.014 49.167 38.4H38.4v51.179h8.614v-40.24l52.54 67.884a64.216 64.216 0 0 0 6.763-5.209z"/><path fill="url(#skill-nextjs-b)" d="M81.778 38.4h8.533v51.2h-8.533z"/><defs><linearGradient id="skill-nextjs-a" x1="109" x2="144.5" y1="116.5" y2="160.5" gradientTransform="scale(.71111)" gradientUnits="userSpaceOnUse"><stop stop-color="#fff"/><stop offset="1" stop-color="#fff" stop-opacity="0"/></linearGradient><linearGradient id="skill-nextjs-b" x1="121" x2="120.799" y1="54" y2="106.875" gradientTransform="scale(.71111)" gradientUnits="userSpaceOnUse"><stop stop-color="#fff"/><stop offset="1" stop-color="#fff" stop-opacity="0"/></linearGradient></defs></symbol>
  <symbol id="skill-sass" viewBox="0 0 128 128"><path fill-rule="evenodd" clip-rule="evenodd" fill="#CB6699" d="M1.219 56.156c0 .703.207 1.167.323 1.618.756 2.933 2.381 5.45 4.309 7.746 2.746 3.272 6.109 5.906 9.554 8.383 2.988 2.148 6.037 4.248 9.037 6.38.515.366 1.002.787 1.561 1.236-.481.26-.881.489-1.297.7-3.959 2.008-7.768 4.259-11.279 6.986-2.116 1.644-4.162 3.391-5.607 5.674-2.325 3.672-3.148 7.584-1.415 11.761.506 1.22 1.278 2.274 2.367 3.053.353.252.749.502 1.162.6 1.058.249 2.136.412 3.207.609l3.033-.002c3.354-.299 6.407-1.448 9.166-3.352 4.312-2.976 7.217-6.966 8.466-12.087.908-3.722.945-7.448-.125-11.153a11.696 11.696 0 00-.354-1.014c-.13-.333-.283-.657-.463-1.072l6.876-3.954.103.088c-.125.409-.258.817-.371 1.23-.817 2.984-1.36 6.02-1.165 9.117.208 3.3 1.129 6.389 3.061 9.146 1.562 2.23 5.284 2.313 6.944.075.589-.795 1.16-1.626 1.589-2.513 1.121-2.315 2.159-4.671 3.23-7.011l.187-.428c-.077 1.108-.167 2.081-.208 3.055-.064 1.521.025 3.033.545 4.48.445 1.238 1.202 2.163 2.62 2.326.97.111 1.743-.333 2.456-.896a10.384 10.384 0 002.691-3.199c1.901-3.491 3.853-6.961 5.576-10.54 1.864-3.871 3.494-7.855 5.225-11.792l.286-.698c.409 1.607.694 3.181 1.219 4.671.61 1.729 1.365 3.417 2.187 5.058.389.775.344 1.278-.195 1.928-2.256 2.72-4.473 5.473-6.692 8.223-.491.607-.98 1.225-1.389 1.888a3.701 3.701 0 00-.48 1.364 1.737 1.737 0 001.383 1.971 9.661 9.661 0 002.708.193c3.097-.228 5.909-1.315 8.395-3.157 3.221-2.386 4.255-5.642 3.475-9.501-.211-1.047-.584-2.065-.947-3.074-.163-.455-.174-.774.123-1.198 2.575-3.677 4.775-7.578 6.821-11.569.081-.157.164-.314.306-.482.663 3.45 1.661 6.775 3.449 9.792-.912.879-1.815 1.676-2.632 2.554-1.799 1.934-3.359 4.034-4.173 6.595-.35 1.104-.619 2.226-.463 3.405.242 1.831 1.742 3.021 3.543 2.604 3.854-.892 7.181-2.708 9.612-5.925 1.636-2.166 1.785-4.582 1.1-7.113-.188-.688-.411-1.365-.651-2.154.951-.295 1.878-.649 2.837-.868 4.979-1.136 9.904-.938 14.702.86 2.801 1.05 5.064 2.807 6.406 5.571 1.639 3.379.733 6.585-2.452 8.721-.297.199-.637.356-.883.605a.869.869 0 00-.205.67c.021.123.346.277.533.275 1.047-.008 1.896-.557 2.711-1.121 2.042-1.413 3.532-3.314 3.853-5.817l.063-.188-.077-1.63c-.031-.094.023-.187.016-.258-.434-3.645-2.381-6.472-5.213-8.688-3.28-2.565-7.153-3.621-11.249-3.788a25.401 25.401 0 00-9.765 1.503c-.897.325-1.786.71-2.688 1.073-.121-.219-.251-.429-.358-.646-.926-1.896-2.048-3.708-2.296-5.882-.176-1.544-.392-3.086-.025-4.613.353-1.469.813-2.913 1.246-4.362.223-.746.066-1.164-.646-1.5a2.854 2.854 0 00-.786-.258c-1.75-.254-3.476-.109-5.171.384-.6.175-1.036.511-1.169 1.175-.076.381-.231.746-.339 1.122-.443 1.563-.757 3.156-1.473 4.645-1.794 3.735-3.842 7.329-5.938 10.897-.227.385-.466.763-.752 1.23-.736-1.54-1.521-2.922-1.759-4.542-.269-1.832-.481-3.661-.025-5.479.339-1.356.782-2.687 1.19-4.025.193-.636.104-.97-.472-1.305-.291-.169-.62-.319-.948-.368a11.643 11.643 0 00-5.354.438c-.543.176-.828.527-.994 1.087-.488 1.652-.904 3.344-1.589 4.915-2.774 6.36-5.628 12.687-8.479 19.013-.595 1.321-1.292 2.596-1.963 3.882-.17.326-.418.613-.63.919-.17-.201-.236-.339-.235-.477.005-.813-.092-1.65.063-2.436a172.189 172.189 0 011.578-7.099c.47-1.946 1.017-3.874 1.538-5.807.175-.647.178-1.252-.287-1.796-.781-.911-2.413-1.111-3.381-.409l-.428.242.083-.69c.204-1.479.245-2.953-.161-4.41-.506-1.816-1.802-2.861-3.686-2.803-.878.027-1.8.177-2.613.497-3.419 1.34-6.048 3.713-8.286 6.568a2.592 2.592 0 01-.757.654c-2.893 1.604-5.795 3.188-8.696 4.778l-3.229 1.769c-.866-.826-1.653-1.683-2.546-2.41-2.727-2.224-5.498-4.393-8.244-6.592-2.434-1.949-4.792-3.979-6.596-6.56-1.342-1.92-2.207-4.021-2.29-6.395-.105-3.025.753-5.789 2.293-8.362 1.97-3.292 4.657-5.934 7.611-8.327 3.125-2.53 6.505-4.678 10.008-6.639 4.901-2.743 9.942-5.171 15.347-6.774 5.542-1.644 11.165-2.585 16.965-1.929 2.28.258 4.494.78 6.527 1.895 1.557.853 2.834 1.97 3.428 3.716.586 1.718.568 3.459.162 5.204-.825 3.534-2.76 6.447-5.195 9.05-3.994 4.267-8.866 7.172-14.351 9.091a39.478 39.478 0 01-9.765 2.083c-2.729.229-5.401-.013-7.985-.962-1.711-.629-3.201-1.591-4.399-2.987-.214-.25-.488-.521-.887-.287-.391.23-.46.602-.329.979.219.626.421 1.278.762 1.838.857 1.405 2.107 2.424 3.483 3.298 2.643 1.681 5.597 2.246 8.66 2.377 4.648.201 9.183-.493 13.654-1.74 6.383-1.78 11.933-4.924 16.384-9.884 3.706-4.13 6.353-8.791 6.92-14.419.277-2.747-.018-5.438-1.304-7.944-1.395-2.715-3.613-4.734-6.265-6.125C68.756 18.179 64.588 17 60.286 17h-4.31c-5.21 0-10.247 1.493-15.143 3.274-3.706 1.349-7.34 2.941-10.868 4.703-7.683 3.839-14.838 8.468-20.715 14.833-2.928 3.171-5.407 6.67-6.833 10.79a40.494 40.494 0 00-1.111 3.746m27.839 36.013c-.333 4.459-2.354 8.074-5.657 11.002-1.858 1.646-3.989 2.818-6.471 3.23-.9.149-1.821.185-2.694-.188-1.245-.532-1.524-1.637-1.548-2.814-.037-1.876.62-3.572 1.521-5.186 1.176-2.104 2.9-3.708 4.741-5.206 2.9-2.361 6.046-4.359 9.268-6.245l.243-.1c.498 1.84.735 3.657.597 5.507zM54.303 70.98c-.235 1.424-.529 2.849-.945 4.229-1.438 4.777-3.285 9.406-5.282 13.973-.369.845-.906 1.616-1.373 2.417a1.689 1.689 0 01-.283.334c-.578.571-1.126.541-1.418-.206-.34-.868-.549-1.797-.729-2.716-.121-.617-.092-1.265-.13-1.897.039-4.494 1.41-8.578 3.736-12.38.959-1.568 2.003-3.062 3.598-4.054a6.27 6.27 0 011.595-.706c.85-.239 1.372.154 1.231 1.006zm17.164 21.868l6.169-7.203c.257 2.675-4.29 8.015-6.169 7.203zm19.703-4.847c-.436.25-.911.43-1.358.661-.409.212-.544-.002-.556-.354a2.385 2.385 0 01.093-.721c.833-2.938 2.366-5.446 4.647-7.486l.16-.082c1.085 3.035-.169 6.368-2.986 7.982z"/></symbol>
  <symbol id="skill-tailwindcss" viewBox="0 0 128 128"><path d="M64.004 25.602c-17.067 0-27.73 8.53-32 25.597 6.398-8.531 13.867-11.73 22.398-9.597 4.871 1.214 8.352 4.746 12.207 8.66C72.883 56.629 80.145 64 96.004 64c17.066 0 27.73-8.531 32-25.602-6.399 8.536-13.867 11.735-22.399 9.602-4.87-1.215-8.347-4.746-12.207-8.66-6.27-6.367-13.53-13.738-29.394-13.738zM32.004 64c-17.066 0-27.73 8.531-32 25.602C6.402 81.066 13.87 77.867 22.402 80c4.871 1.215 8.352 4.746 12.207 8.66 6.274 6.367 13.536 13.738 29.395 13.738 17.066 0 27.73-8.53 32-25.597-6.399 8.531-13.867 11.73-22.399 9.597-4.87-1.214-8.347-4.746-12.207-8.66C55.128 71.371 47.868 64 32.004 64zm0 0" fill="#38bdf8"/></symbol>
  <symbol id="skill-storybook" viewBox="0 0 128 128"><path d="M107.346 2.012l-6.914.431.539 14.377c.028.795-.889 1.259-1.514.766l-4.63-3.65-5.485 4.162a.934.934 0 01-1.498-.784l.617-14.123L19.873 7.48a6.264 6.264 0 00-5.87 6.488l3.86 102.838a6.264 6.264 0 005.98 6.023l83.612 3.754a6.273 6.273 0 004.609-1.73 6.255 6.255 0 001.936-4.526V8.264a6.258 6.258 0 00-1.975-4.566 6.257 6.257 0 00-4.679-1.686zm-41.46 21.187c16.308 0 25.214 8.723 25.214 25.319-2.204 1.713-18.62 2.88-18.62.443.346-9.3-3.817-9.707-6.13-9.707-2.198 0-5.899.662-5.899 5.644 0 12.288 31.69 11.625 31.69 36.424 0 13.95-11.335 21.655-25.791 21.655-14.92 0-27.957-6.036-26.485-26.963.578-2.457 19.545-1.873 19.545 0-.23 8.635 1.735 11.175 6.707 11.175 3.817 0 5.553-2.103 5.553-5.646 0-12.621-31.227-13.063-31.227-36.201 0-13.285 9.138-22.143 25.444-22.143z" fill="#FF4785"/></symbol>
  <symbol id="skill-typescript" viewBox="0 0 128 128"><path fill="#fff" d="M22.67 47h99.67v73.67H22.67z"/><path data-name="original" fill="#007acc" d="M1.5 63.91v62.5h125v-125H1.5zm100.73-5a15.56 15.56 0 017.82 4.5 20.58 20.58 0 013 4c0 .16-5.4 3.81-8.69 5.85-.12.08-.6-.44-1.13-1.23a7.09 7.09 0 00-5.87-3.53c-3.79-.26-6.23 1.73-6.21 5a4.58 4.58 0 00.54 2.34c.83 1.73 2.38 2.76 7.24 4.86 8.95 3.85 12.78 6.39 15.16 10 2.66 4 3.25 10.46 1.45 15.24-2 5.2-6.9 8.73-13.83 9.9a38.32 38.32 0 01-9.52-.1 23 23 0 01-12.72-6.63c-1.15-1.27-3.39-4.58-3.25-4.82a9.34 9.34 0 011.15-.73L82 101l3.59-2.08.75 1.11a16.78 16.78 0 004.74 4.54c4 2.1 9.46 1.81 12.16-.62a5.43 5.43 0 00.69-6.92c-1-1.39-3-2.56-8.59-5-6.45-2.78-9.23-4.5-11.77-7.24a16.48 16.48 0 01-3.43-6.25 25 25 0 01-.22-8c1.33-6.23 6-10.58 12.82-11.87a31.66 31.66 0 019.49.26zm-29.34 5.24v5.12H56.66v46.23H45.15V69.26H28.88v-5a49.19 49.19 0 01.12-5.17C29.08 59 39 59 51 59h21.83z"/></symbol>
  <symbol id="skill-python" viewBox="0 0 128 128"><linearGradient id="skill-python-python-original-a" gradientUnits="userSpaceOnUse" x1="70.252" y1="1237.476" x2="170.659" y2="1151.089" gradientTransform="matrix(.563 0 0 -.568 -29.215 707.817)"><stop offset="0" stop-color="#5A9FD4"/><stop offset="1" stop-color="#306998"/></linearGradient><linearGradient id="skill-python-python-original-b" gradientUnits="userSpaceOnUse" x1="209.474" y1="1098.811" x2="173.62" y2="1149.537" gradientTransform="matrix(.563 0 0 -.568 -29.215 707.817)"><stop offset="0" stop-color="#FFD43B"/><stop offset="1" stop-color="#FFE873"/></linearGradient><path fill="url(#skill-python-python-original-a)" d="M63.391 1.988c-4.222.02-8.252.379-11.8 1.007-10.45 1.846-12.346 5.71-12.346 12.837v9.411h24.693v3.137H29.977c-7.176 0-13.46 4.313-15.426 12.521-2.268 9.405-2.368 15.275 0 25.096 1.755 7.311 5.947 12.519 13.124 12.519h8.491V67.234c0-8.151 7.051-15.34 15.426-15.34h24.665c6.866 0 12.346-5.654 12.346-12.548V15.833c0-6.693-5.646-11.72-12.346-12.837-4.244-.706-8.645-1.027-12.866-1.008zM50.037 9.557c2.55 0 4.634 2.117 4.634 4.721 0 2.593-2.083 4.69-4.634 4.69-2.56 0-4.633-2.097-4.633-4.69-.001-2.604 2.073-4.721 4.633-4.721z" transform="translate(0 10.26)"/><path fill="url(#skill-python-python-original-b)" d="M91.682 28.38v10.966c0 8.5-7.208 15.655-15.426 15.655H51.591c-6.756 0-12.346 5.783-12.346 12.549v23.515c0 6.691 5.818 10.628 12.346 12.547 7.816 2.297 15.312 2.713 24.665 0 6.216-1.801 12.346-5.423 12.346-12.547v-9.412H63.938v-3.138h37.012c7.176 0 9.852-5.005 12.348-12.519 2.578-7.735 2.467-15.174 0-25.096-1.774-7.145-5.161-12.521-12.348-12.521h-9.268zM77.809 87.927c2.561 0 4.634 2.097 4.634 4.692 0 2.602-2.074 4.719-4.634 4.719-2.55 0-4.633-2.117-4.633-4.719 0-2.595 2.083-4.692 4.633-4.692z" transform="translate(0 10.26)"/><radialGradient id="skill-python-python-original-c" cx="1825.678" cy="444.45" r="26.743" gradientTransform="matrix(0 -.24 -1.055 0 532.979 557.576)" gradientUnits="userSpaceOnUse"><stop offset="0" stop-color="#B8B8B8" stop-opacity=".498"/><stop offset="1" stop-color="#7F7F7F" stop-opacity="0"/></radialGradient><path opacity=".444" fill="url(#skill-python-python-original-c)" d="M97.309 119.597c0 3.543-14.816 6.416-33.091 6.416-18.276 0-33.092-2.873-33.092-6.416 0-3.544 14.815-6.417 33.092-6.417 18.275 0 33.091 2.872 33.091 6.417z"/></symbol>
  <symbol id="skill-nodejs" viewBox="0 0 128 128"><path fill="url(#skill-nodejs-a)" d="M66.958.825a6.07 6.07 0 0 0-6.035 0L11.103 29.76c-1.895 1.072-2.96 3.095-2.96 5.24v57.988c0 2.143 1.183 4.167 2.958 5.24l49.82 28.934a6.07 6.07 0 0 0 6.036 0l49.82-28.935c1.894-1.072 2.958-3.096 2.958-5.24V35c0-2.144-1.183-4.167-2.958-5.24z"/><path fill="url(#skill-nodejs-b)" d="M116.897 29.76 66.841.825A8.161 8.161 0 0 0 65.302.23L9.21 96.798a6.251 6.251 0 0 0 1.657 1.43l50.057 28.934c1.42.833 3.076 1.072 4.615.595l52.66-96.925a3.702 3.702 0 0 0-1.302-1.072z"/><path fill="url(#skill-nodejs-c)" d="M116.898 98.225c1.42-.833 2.485-2.262 2.958-3.81L65.066.108c-1.42-.238-2.959-.119-4.26.715L11.104 29.639l53.606 98.355c.71-.12 1.54-.358 2.25-.715z"/><defs><linearGradient id="skill-nodejs-a" x1="34.513" x2="27.157" y1="15.535" y2="30.448" gradientTransform="translate(-129.242 -73.715) scale(6.18523)" gradientUnits="userSpaceOnUse"><stop stop-color="#3F873F"/><stop offset=".33" stop-color="#3F8B3D"/><stop offset=".637" stop-color="#3E9638"/><stop offset=".934" stop-color="#3DA92E"/><stop offset="1" stop-color="#3DAE2B"/></linearGradient><linearGradient id="skill-nodejs-b" x1="30.009" x2="50.533" y1="23.359" y2="8.288" gradientTransform="translate(-129.242 -73.715) scale(6.18523)" gradientUnits="userSpaceOnUse"><stop offset=".138" stop-color="#3F873F"/><stop offset=".402" stop-color="#52A044"/><stop offset=".713" stop-color="#64B749"/><stop offset=".908" stop-color="#6ABF4B"/></linearGradient><linearGradient id="skill-nodejs-c" x1="21.917" x2="40.555" y1="22.261" y2="22.261" gradientTransform="translate(-129.242 -73.715) scale(6.18523)" gradientUnits="userSpaceOnUse"><stop offset=".092" stop-color="#6ABF4B"/><stop offset=".287" stop-color="#64B749"/><stop offset=".598" stop-color="#52A044"/><stop offset=".862" stop-color="#3F873F"/></linearGradient></defs></symbol>
  <symbol id="skill-express" viewBox="0 0 128 128"><path d="M126.67 98.44c-4.56 1.16-7.38.05-9.91-3.75-5.68-8.51-11.95-16.63-18-24.9-.78-1.07-1.59-2.12-2.6-3.45C89 76 81.85 85.2 75.14 94.77c-2.4 3.42-4.92 4.91-9.4 3.7l26.92-36.13L67.6 29.71c4.31-.84 7.29-.41 9.93 3.45 5.83 8.52 12.26 16.63 18.67 25.21 6.45-8.55 12.8-16.67 18.8-25.11 2.41-3.42 5-4.72 9.33-3.46-3.28 4.35-6.49 8.63-9.72 12.88-4.36 5.73-8.64 11.53-13.16 17.14-1.61 2-1.35 3.3.09 5.19C109.9 76 118.16 87.1 126.67 98.44zM1.33 61.74c.72-3.61 1.2-7.29 2.2-10.83 6-21.43 30.6-30.34 47.5-17.06C60.93 41.64 63.39 52.62 62.9 65H7.1c-.84 22.21 15.15 35.62 35.53 28.78 7.15-2.4 11.36-8 13.47-15 1.07-3.51 2.84-4.06 6.14-3.06-1.69 8.76-5.52 16.08-13.52 20.66-12 6.86-29.13 4.64-38.14-4.89C5.26 85.89 3 78.92 2 71.39c-.15-1.2-.46-2.38-.7-3.57q.03-3.04.03-6.08zm5.87-1.49h50.43c-.33-16.06-10.33-27.47-24-27.57-15-.12-25.78 11.02-26.43 27.57z"/></symbol>
  <symbol id="skill-mongodb" viewBox="0 0 128 128"><path fill-rule="evenodd" clip-rule="evenodd" fill="#439934" d="M88.038 42.812c1.605 4.643 2.761 9.383 3.141 14.296.472 6.095.256 12.147-1.029 18.142-.035.165-.109.32-.164.48-.403.001-.814-.049-1.208.012-3.329.523-6.655 1.065-9.981 1.604-3.438.557-6.881 1.092-10.313 1.687-1.216.21-2.721-.041-3.212 1.641-.014.046-.154.054-.235.08l.166-10.051-.169-24.252 1.602-.275c2.62-.429 5.24-.864 7.862-1.281 3.129-.497 6.261-.98 9.392-1.465 1.381-.215 2.764-.412 4.148-.618z"/><path fill-rule="evenodd" clip-rule="evenodd" fill="#45A538" d="M61.729 110.054c-1.69-1.453-3.439-2.842-5.059-4.37-8.717-8.222-15.093-17.899-18.233-29.566-.865-3.211-1.442-6.474-1.627-9.792-.13-2.322-.318-4.665-.154-6.975.437-6.144 1.325-12.229 3.127-18.147l.099-.138c.175.233.427.439.516.702 1.759 5.18 3.505 10.364 5.242 15.551 5.458 16.3 10.909 32.604 16.376 48.9.107.318.384.579.583.866l-.87 2.969z"/><path fill-rule="evenodd" clip-rule="evenodd" fill="#46A037" d="M88.038 42.812c-1.384.206-2.768.403-4.149.616-3.131.485-6.263.968-9.392 1.465-2.622.417-5.242.852-7.862 1.281l-1.602.275-.012-1.045c-.053-.859-.144-1.717-.154-2.576-.069-5.478-.112-10.956-.18-16.434-.042-3.429-.105-6.857-.175-10.285-.043-2.13-.089-4.261-.185-6.388-.052-1.143-.236-2.28-.311-3.423-.042-.657.016-1.319.029-1.979.817 1.583 1.616 3.178 2.456 4.749 1.327 2.484 3.441 4.314 5.344 6.311 7.523 7.892 12.864 17.068 16.193 27.433z"/><path fill-rule="evenodd" clip-rule="evenodd" fill="#409433" d="M65.036 80.753c.081-.026.222-.034.235-.08.491-1.682 1.996-1.431 3.212-1.641 3.432-.594 6.875-1.13 10.313-1.687 3.326-.539 6.652-1.081 9.981-1.604.394-.062.805-.011 1.208-.012-.622 2.22-1.112 4.488-1.901 6.647-.896 2.449-1.98 4.839-3.131 7.182a49.142 49.142 0 01-6.353 9.763c-1.919 2.308-4.058 4.441-6.202 6.548-1.185 1.165-2.582 2.114-3.882 3.161l-.337-.23-1.214-1.038-1.256-2.753a41.402 41.402 0 01-1.394-9.838l.023-.561.171-2.426c.057-.828.133-1.655.168-2.485.129-2.982.241-5.964.359-8.946z"/><path fill-rule="evenodd" clip-rule="evenodd" fill="#4FAA41" d="M65.036 80.753c-.118 2.982-.23 5.964-.357 8.947-.035.83-.111 1.657-.168 2.485l-.765.289c-1.699-5.002-3.399-9.951-5.062-14.913-2.75-8.209-5.467-16.431-8.213-24.642a4498.887 4498.887 0 00-6.7-19.867c-.105-.31-.407-.552-.617-.826l4.896-9.002c.168.292.39.565.496.879a6167.476 6167.476 0 016.768 20.118c2.916 8.73 5.814 17.467 8.728 26.198.116.349.308.671.491 1.062l.67-.78-.167 10.052z"/><path fill-rule="evenodd" clip-rule="evenodd" fill="#4AA73C" d="M43.155 32.227c.21.274.511.516.617.826a4498.887 4498.887 0 016.7 19.867c2.746 8.211 5.463 16.433 8.213 24.642 1.662 4.961 3.362 9.911 5.062 14.913l.765-.289-.171 2.426-.155.559c-.266 2.656-.49 5.318-.814 7.968-.163 1.328-.509 2.632-.772 3.947-.198-.287-.476-.548-.583-.866-5.467-16.297-10.918-32.6-16.376-48.9a3888.972 3888.972 0 00-5.242-15.551c-.089-.263-.34-.469-.516-.702l3.272-8.84z"/><path fill-rule="evenodd" clip-rule="evenodd" fill="#57AE47" d="M65.202 70.702l-.67.78c-.183-.391-.375-.714-.491-1.062-2.913-8.731-5.812-17.468-8.728-26.198a6167.476 6167.476 0 00-6.768-20.118c-.105-.314-.327-.588-.496-.879l6.055-7.965c.191.255.463.482.562.769 1.681 4.921 3.347 9.848 5.003 14.778 1.547 4.604 3.071 9.215 4.636 13.813.105.308.47.526.714.786l.012 1.045c.058 8.082.115 16.167.171 24.251z"/><path fill-rule="evenodd" clip-rule="evenodd" fill="#60B24F" d="M65.021 45.404c-.244-.26-.609-.478-.714-.786-1.565-4.598-3.089-9.209-4.636-13.813-1.656-4.93-3.322-9.856-5.003-14.778-.099-.287-.371-.514-.562-.769 1.969-1.928 3.877-3.925 5.925-5.764 1.821-1.634 3.285-3.386 3.352-5.968.003-.107.059-.214.145-.514l.519 1.306c-.013.661-.072 1.322-.029 1.979.075 1.143.259 2.28.311 3.423.096 2.127.142 4.258.185 6.388.069 3.428.132 6.856.175 10.285.067 5.478.111 10.956.18 16.434.008.861.098 1.718.152 2.577z"/><path fill-rule="evenodd" clip-rule="evenodd" fill="#A9AA88" d="M62.598 107.085c.263-1.315.609-2.62.772-3.947.325-2.649.548-5.312.814-7.968l.066-.01.066.011a41.402 41.402 0 001.394 9.838c-.176.232-.425.439-.518.701-.727 2.05-1.412 4.116-2.143 6.166-.1.28-.378.498-.574.744l-.747-2.566.87-2.969z"/><path fill-rule="evenodd" clip-rule="evenodd" fill="#B6B598" d="M62.476 112.621c.196-.246.475-.464.574-.744.731-2.05 1.417-4.115 2.143-6.166.093-.262.341-.469.518-.701l1.255 2.754c-.248.352-.59.669-.728 1.061l-2.404 7.059c-.099.283-.437.483-.663.722l-.695-3.985z"/><path fill-rule="evenodd" clip-rule="evenodd" fill="#C2C1A7" d="M63.171 116.605c.227-.238.564-.439.663-.722l2.404-7.059c.137-.391.48-.709.728-1.061l1.215 1.037c-.587.58-.913 1.25-.717 2.097l-.369 1.208c-.168.207-.411.387-.494.624-.839 2.403-1.64 4.819-2.485 7.222-.107.305-.404.544-.614.812-.109-1.387-.22-2.771-.331-4.158z"/><path fill-rule="evenodd" clip-rule="evenodd" fill="#CECDB7" d="M63.503 120.763c.209-.269.506-.508.614-.812.845-2.402 1.646-4.818 2.485-7.222.083-.236.325-.417.494-.624l-.509 5.545c-.136.157-.333.294-.398.477-.575 1.614-1.117 3.24-1.694 4.854-.119.333-.347.627-.525.938-.158-.207-.441-.407-.454-.623-.051-.841-.016-1.688-.013-2.533z"/><path fill-rule="evenodd" clip-rule="evenodd" fill="#DBDAC7" d="M63.969 123.919c.178-.312.406-.606.525-.938.578-1.613 1.119-3.239 1.694-4.854.065-.183.263-.319.398-.477l.012 3.64-1.218 3.124-1.411-.495z"/><path fill-rule="evenodd" clip-rule="evenodd" fill="#EBE9DC" d="M65.38 124.415l1.218-3.124.251 3.696-1.469-.572z"/><path fill-rule="evenodd" clip-rule="evenodd" fill="#CECDB7" d="M67.464 110.898c-.196-.847.129-1.518.717-2.097l.337.23-1.054 1.867z"/><path fill-rule="evenodd" clip-rule="evenodd" fill="#4FAA41" d="M64.316 95.172l-.066-.011-.066.01.155-.559-.023.56z"/></symbol>
  <symbol id="skill-postgresql" viewBox="0 0 128 128"><path d="M93.809 92.112c.785-6.533.55-7.492 5.416-6.433l1.235.108c3.742.17 8.637-.602 11.513-1.938 6.191-2.873 9.861-7.668 3.758-6.409-13.924 2.873-14.881-1.842-14.881-1.842 14.703-21.815 20.849-49.508 15.543-56.287-14.47-18.489-39.517-9.746-39.936-9.52l-.134.025c-2.751-.571-5.83-.912-9.289-.968-6.301-.104-11.082 1.652-14.709 4.402 0 0-44.683-18.409-42.604 23.151.442 8.841 12.672 66.898 27.26 49.362 5.332-6.412 10.484-11.834 10.484-11.834 2.558 1.699 5.622 2.567 8.834 2.255l.249-.212c-.078.796-.044 1.575.099 2.497-3.757 4.199-2.653 4.936-10.166 6.482-7.602 1.566-3.136 4.355-.221 5.084 3.535.884 11.712 2.136 17.238-5.598l-.22.882c1.474 1.18 1.375 8.477 1.583 13.69.209 5.214.558 10.079 1.621 12.948 1.063 2.868 2.317 10.256 12.191 8.14 8.252-1.764 14.561-4.309 15.136-27.985"/><path d="M75.458 125.256c-4.367 0-7.211-1.689-8.938-3.32-2.607-2.46-3.641-5.629-4.259-7.522l-.267-.79c-1.244-3.358-1.666-8.193-1.916-14.419-.038-.935-.064-1.898-.093-2.919-.021-.747-.047-1.684-.085-2.664a18.8 18.8 0 01-4.962 1.568c-3.079.526-6.389.356-9.84-.507-2.435-.609-4.965-1.871-6.407-3.82-4.203 3.681-8.212 3.182-10.396 2.453-3.853-1.285-7.301-4.896-10.542-11.037-2.309-4.375-4.542-10.075-6.638-16.943-3.65-11.96-5.969-24.557-6.175-28.693C4.292 23.698 7.777 14.44 15.296 9.129 27.157.751 45.128 5.678 51.68 7.915c4.402-2.653 9.581-3.944 15.433-3.851 3.143.051 6.136.327 8.916.823 2.9-.912 8.628-2.221 15.185-2.139 12.081.144 22.092 4.852 28.949 13.615 4.894 6.252 2.474 19.381.597 26.651-2.642 10.226-7.271 21.102-12.957 30.57 1.544.011 3.781-.174 6.961-.831 6.274-1.295 8.109 2.069 8.607 3.575 1.995 6.042-6.677 10.608-9.382 11.864-3.466 1.609-9.117 2.589-13.745 2.377l-.202-.013-1.216-.107-.12 1.014-.116.991c-.311 11.999-2.025 19.598-5.552 24.619-3.697 5.264-8.835 6.739-13.361 7.709-1.544.33-2.947.474-4.219.474zm-9.19-43.671c2.819 2.256 3.066 6.501 3.287 14.434.028.99.054 1.927.089 2.802.106 2.65.355 8.855 1.327 11.477.137.371.26.747.39 1.146 1.083 3.316 1.626 4.979 6.309 3.978 3.931-.843 5.952-1.599 7.534-3.851 2.299-3.274 3.585-9.86 3.821-19.575l4.783.116-4.75-.57.14-1.186c.455-3.91.783-6.734 3.396-8.602 2.097-1.498 4.486-1.353 6.389-1.01-2.091-1.58-2.669-3.433-2.823-4.193l-.399-1.965 1.121-1.663c6.457-9.58 11.781-21.354 14.609-32.304 2.906-11.251 2.02-17.226 1.134-18.356-11.729-14.987-32.068-8.799-34.192-8.097l-.359.194-1.8.335-.922-.191c-2.542-.528-5.366-.82-8.393-.869-4.756-.08-8.593 1.044-11.739 3.431l-2.183 1.655-2.533-1.043c-5.412-2.213-21.308-6.662-29.696-.721-4.656 3.298-6.777 9.76-6.305 19.207.156 3.119 2.275 14.926 5.771 26.377 4.831 15.825 9.221 21.082 11.054 21.693.32.108 1.15-.537 1.976-1.529a270.708 270.708 0 0110.694-12.07l2.77-2.915 3.349 2.225c1.35.897 2.839 1.406 4.368 1.502l7.987-6.812-1.157 11.808c-.026.265-.039.626.065 1.296l.348 2.238-1.51 1.688-.174.196 4.388 2.025 1.836-2.301z"/><path fill="#336791" d="M115.731 77.44c-13.925 2.873-14.882-1.842-14.882-1.842 14.703-21.816 20.849-49.51 15.545-56.287C101.924.823 76.875 9.566 76.457 9.793l-.135.024c-2.751-.571-5.83-.911-9.291-.967-6.301-.103-11.08 1.652-14.707 4.402 0 0-44.684-18.408-42.606 23.151.442 8.842 12.672 66.899 27.26 49.363 5.332-6.412 10.483-11.834 10.483-11.834 2.559 1.699 5.622 2.567 8.833 2.255l.25-.212c-.078.796-.042 1.575.1 2.497-3.758 4.199-2.654 4.936-10.167 6.482-7.602 1.566-3.136 4.355-.22 5.084 3.534.884 11.712 2.136 17.237-5.598l-.221.882c1.473 1.18 2.507 7.672 2.334 13.557-.174 5.885-.29 9.926.871 13.082 1.16 3.156 2.316 10.256 12.192 8.14 8.252-1.768 12.528-6.351 13.124-13.995.422-5.435 1.377-4.631 1.438-9.49l.767-2.3c.884-7.367.14-9.743 5.225-8.638l1.235.108c3.742.17 8.639-.602 11.514-1.938 6.19-2.871 9.861-7.667 3.758-6.408z"/><path fill="#fff" d="M75.957 122.307c-8.232 0-10.84-6.519-11.907-9.185-1.562-3.907-1.899-19.069-1.551-31.503a1.59 1.59 0 011.64-1.55 1.594 1.594 0 011.55 1.639c-.401 14.341.168 27.337 1.324 30.229 1.804 4.509 4.54 8.453 12.275 6.796 7.343-1.575 10.093-4.359 11.318-11.46.94-5.449 2.799-20.951 3.028-24.01a1.593 1.593 0 011.71-1.472 1.597 1.597 0 011.472 1.71c-.239 3.185-2.089 18.657-3.065 24.315-1.446 8.387-5.185 12.191-13.794 14.037-1.463.313-2.792.453-4 .454zM31.321 90.466a6.71 6.71 0 01-2.116-.35c-5.347-1.784-10.44-10.492-15.138-25.885-3.576-11.717-5.842-23.947-6.041-27.922-.589-11.784 2.445-20.121 9.02-24.778 13.007-9.216 34.888-.44 35.813-.062a1.596 1.596 0 01-1.207 2.955c-.211-.086-21.193-8.492-32.768-.285-5.622 3.986-8.203 11.392-7.672 22.011.167 3.349 2.284 15.285 5.906 27.149 4.194 13.742 8.967 22.413 13.096 23.79.648.216 2.62.873 5.439-2.517A245.272 245.272 0 0145.88 73.046a1.596 1.596 0 012.304 2.208c-.048.05-4.847 5.067-10.077 11.359-2.477 2.979-4.851 3.853-6.786 3.853zm69.429-13.445a1.596 1.596 0 01-1.322-2.487c14.863-22.055 20.08-48.704 15.612-54.414-5.624-7.186-13.565-10.939-23.604-11.156-7.433-.16-13.341 1.738-14.307 2.069l-.243.099c-.971.305-1.716-.227-1.997-.849a1.6 1.6 0 01.631-2.025c.046-.027.192-.089.429-.176l-.021.006.021-.007c1.641-.601 7.639-2.4 15.068-2.315 11.108.118 20.284 4.401 26.534 12.388 2.957 3.779 2.964 12.485.019 23.887-3.002 11.625-8.651 24.118-15.497 34.277-.306.457-.81.703-1.323.703zm.76 10.21c-2.538 0-4.813-.358-6.175-1.174-1.4-.839-1.667-1.979-1.702-2.584-.382-6.71 3.32-7.878 5.208-8.411-.263-.398-.637-.866-1.024-1.349-1.101-1.376-2.609-3.26-3.771-6.078-.182-.44-.752-1.463-1.412-2.648-3.579-6.418-11.026-19.773-6.242-26.612 2.214-3.165 6.623-4.411 13.119-3.716C97.6 28.837 88.5 10.625 66.907 10.271c-6.494-.108-11.82 1.889-15.822 5.93-8.96 9.049-8.636 25.422-8.631 25.586a1.595 1.595 0 11-3.19.084c-.02-.727-.354-17.909 9.554-27.916C53.455 9.272 59.559 6.96 66.96 7.081c13.814.227 22.706 7.25 27.732 13.101 5.479 6.377 8.165 13.411 8.386 15.759.165 1.746-1.088 2.095-1.341 2.147l-.576.013c-6.375-1.021-10.465-.312-12.156 2.104-3.639 5.201 3.406 17.834 6.414 23.229.768 1.376 1.322 2.371 1.576 2.985.988 2.396 2.277 4.006 3.312 5.3.911 1.138 1.7 2.125 1.982 3.283.131.23 1.99 2.98 13.021.703 2.765-.57 4.423-.083 4.93 1.45.997 3.015-4.597 6.532-7.694 7.97-2.775 1.29-7.204 2.106-11.036 2.106zm-4.696-4.021c.35.353 2.101.962 5.727.806 3.224-.138 6.624-.839 8.664-1.786 2.609-1.212 4.351-2.567 5.253-3.492l-.5.092c-7.053 1.456-12.042 1.262-14.828-.577a6.162 6.162 0 01-.54-.401c-.302.119-.581.197-.78.253-1.58.443-3.214.902-2.996 5.105zm-45.562 8.915c-1.752 0-3.596-.239-5.479-.71-1.951-.488-5.24-1.957-5.19-4.37.057-2.707 3.994-3.519 5.476-3.824 5.354-1.103 5.703-1.545 7.376-3.67.488-.619 1.095-1.39 1.923-2.314 1.229-1.376 2.572-2.073 3.992-2.073.989 0 1.8.335 2.336.558 1.708.708 3.133 2.42 3.719 4.467.529 1.847.276 3.625-.71 5.006-3.237 4.533-7.886 6.93-13.443 6.93zm-7.222-4.943c.481.372 1.445.869 2.518 1.137 1.631.408 3.213.615 4.705.615 4.546 0 8.196-1.882 10.847-5.594.553-.774.387-1.757.239-2.274-.31-1.083-1.08-2.068-1.873-2.397-.43-.178-.787-.314-1.115-.314-.176 0-.712 0-1.614 1.009a41.146 41.146 0 00-1.794 2.162c-2.084 2.646-3.039 3.544-9.239 4.821-1.513.31-2.289.626-2.674.835zm12.269-7.36a1.596 1.596 0 01-1.575-1.354 8.218 8.218 0 01-.08-.799c-4.064-.076-7.985-1.82-10.962-4.926-3.764-3.927-5.477-9.368-4.699-14.927.845-6.037.529-11.366.359-14.229-.047-.796-.081-1.371-.079-1.769.003-.505.013-1.844 4.489-4.113 1.592-.807 4.784-2.215 8.271-2.576 5.777-.597 9.585 1.976 10.725 7.246 3.077 14.228.244 20.521-1.825 25.117-.385.856-.749 1.664-1.04 2.447l-.257.69c-1.093 2.931-2.038 5.463-1.748 7.354a1.595 1.595 0 01-1.335 1.819l-.244.02zM42.464 42.26l.062 1.139c.176 2.974.504 8.508-.384 14.86-.641 4.585.759 9.06 3.843 12.276 2.437 2.542 5.644 3.945 8.94 3.945h.068c.369-1.555.982-3.197 1.642-4.966l.255-.686c.329-.884.714-1.74 1.122-2.646 1.991-4.424 4.47-9.931 1.615-23.132-.565-2.615-1.936-4.128-4.189-4.627-4.628-1.022-11.525 2.459-12.974 3.837zm9.63-.677c-.08.564 1.033 2.07 2.485 2.271 1.449.203 2.689-.975 2.768-1.539.079-.564-1.033-1.186-2.485-1.388-1.451-.202-2.691.092-2.768.656zm2.818 2.826l-.407-.028c-.9-.125-1.81-.692-2.433-1.518-.219-.29-.576-.852-.505-1.354.101-.736.999-1.177 2.4-1.177.313 0 .639.023.967.069.766.106 1.477.327 2.002.62.91.508.977 1.075.936 1.368-.112.813-1.405 2.02-2.96 2.02zm-2.289-2.732c.045.348.907 1.496 2.029 1.651l.261.018c1.036 0 1.81-.815 1.901-1.082-.096-.182-.762-.634-2.025-.81a5.823 5.823 0 00-.821-.059c-.812 0-1.243.183-1.345.282zm43.605-1.245c.079.564-1.033 2.07-2.484 2.272-1.45.202-2.691-.975-2.771-1.539-.076-.564 1.036-1.187 2.486-1.388 1.45-.203 2.689.092 2.769.655zm-2.819 2.56c-1.396 0-2.601-1.086-2.7-1.791-.115-.846 1.278-1.489 2.712-1.688.316-.044.629-.066.93-.066 1.238 0 2.058.363 2.14.949.053.379-.238.964-.739 1.492-.331.347-1.026.948-1.973 1.079l-.37.025zm.943-3.013c-.276 0-.564.021-.856.061-1.441.201-2.301.779-2.259 1.089.048.341.968 1.332 2.173 1.332l.297-.021c.787-.109 1.378-.623 1.66-.919.443-.465.619-.903.598-1.052-.028-.198-.56-.49-1.613-.49zm3.965 32.843a1.594 1.594 0 01-1.324-2.483c3.398-5.075 2.776-10.25 2.175-15.255-.257-2.132-.521-4.337-.453-6.453.07-2.177.347-3.973.614-5.71.317-2.058.617-4.002.493-6.31a1.595 1.595 0 113.186-.172c.142 2.638-.197 4.838-.525 6.967-.253 1.643-.515 3.342-.578 5.327-.061 1.874.178 3.864.431 5.97.64 5.322 1.365 11.354-2.691 17.411a1.596 1.596 0 01-1.328.708z"/></symbol>
  <symbol id="skill-git" viewBox="0 0 128 128"><path fill="#F34F29" d="M124.737 58.378L69.621 3.264c-3.172-3.174-8.32-3.174-11.497 0L46.68 14.71l14.518 14.518c3.375-1.139 7.243-.375 9.932 2.314 2.703 2.706 3.461 6.607 2.294 9.993l13.992 13.993c3.385-1.167 7.292-.413 9.994 2.295 3.78 3.777 3.78 9.9 0 13.679a9.673 9.673 0 01-13.683 0 9.677 9.677 0 01-2.105-10.521L68.574 47.933l-.002 34.341a9.708 9.708 0 012.559 1.828c3.778 3.777 3.778 9.898 0 13.683-3.779 3.777-9.904 3.777-13.679 0-3.778-3.784-3.778-9.905 0-13.683a9.65 9.65 0 013.167-2.11V47.333a9.581 9.581 0 01-3.167-2.111c-2.862-2.86-3.551-7.06-2.083-10.576L41.056 20.333 3.264 58.123a8.133 8.133 0 000 11.5l55.117 55.114c3.174 3.174 8.32 3.174 11.499 0l54.858-54.858a8.135 8.135 0 00-.001-11.501z"/></symbol>
  <symbol id="skill-npm" viewBox="0 0 128 128"><path fill="#cb3837" d="M2 38.5h124v43.71H64v7.29H36.44v-7.29H2zm6.89 36.43h13.78V53.07h6.89v21.86h6.89V45.79H8.89zm34.44-29.14v36.42h13.78v-7.28h13.78V45.79zm13.78 7.29H64v14.56h-6.89zm20.67-7.29v29.14h13.78V53.07h6.89v21.86h6.89V53.07h6.89v21.86h6.89V45.79z"/></symbol>
  <symbol id="skill-postman" viewBox="0 0 128 128"><path fill="#f37036" d="M113.117 26.066C92.168-1.062 53.191-6.07 26.062 14.883c-27.125 20.953-32.128 59.93-11.175 87.055 20.957 27.124 59.937 32.124 87.058 11.167 27.114-20.953 32.118-59.918 11.172-87.039Zm0 0"/>
    <path fill="#fff" d="M91.078 24.164a10.038 10.038 0 0 0-5.781 2.426 10.028 10.028 0 0 0-1.54 13.465 10.028 10.028 0 0 0 13.276 2.715h.002v.001l.156.155a10.63 10.63 0 0 0 1.965-1.45A10.341 10.341 0 0 0 99 27.107v-.002l-8.844 8.789-.156-.155 8.844-8.793a10.038 10.038 0 0 0-7.766-2.78zM79.434 38.551c-4.24-.007-11.163 4.799-28.067 21.703l.084.086c-.092-.032-.185-.035-.185-.035l-6.364 6.308a1.035 1.035 0 0 0 .93 1.762l10.914-2.328a.307.307 0 0 0 .092-.17l.242.25-3.72 3.69h-.18l-22.086 22.26 7.086 6.824a1.254 1.254 0 0 0 1.476.149 1.327 1.327 0 0 0 .645-1.356l-1.035-4.5a.534.534 0 0 1 0-.62 117.285 117.285 0 0 0 26.738-17.583l-4.535-4.537.086-.014-2.69-2.689.172-.174.182.186-.094.091 7.137 7.293v-.003c13.68-12.954 23.39-23.367 20.865-30.375a3.83 3.83 0 0 0-1.107-2.208v.004a3.778 3.778 0 0 0-.483-.306c-.083-.088-.156-.178-.244-.264l-.066.066a3.778 3.778 0 0 0-.582-.29l.289-.292c-1.796-1.6-3.28-2.924-5.5-2.93zM30.94 92.21l-5.171 5.172v.004a1.03 1.03 0 0 0-.457 1.125 1.035 1.035 0 0 0 .921.789l12.672.875-7.965-7.965z"/>
    <path fill="#f37036" d="M91.95 23.31a11.047 11.047 0 0 0-7.759 3.17 10.988 10.988 0 0 0-2.39 11.641c-4.741-2.03-11.155 1.51-31.106 21.457a.932.932 0 0 0-.037.094 1.242 1.242 0 0 0-.119.062l-6.309 6.364a1.97 1.97 0 0 0-.363 2.324 2.012 2.012 0 0 0 1.707.984l.313-.203 8.424-1.797-4.03 4.067a.873.873 0 0 0-.054.166l-19.75 19.799a.798.798 0 0 0-.192.238l-5.086 5.09a1.967 1.967 0 0 0-.414 2.043 1.995 1.995 0 0 0 1.656 1.265l12.618.88a1.01 1.01 0 0 0 .52-.415.886.886 0 0 0 0-1.035l-.026-.025a2.243 2.243 0 0 0 .705-.58 2.237 2.237 0 0 0 .406-1.876l-.984-4.187a126.725 126.725 0 0 0 26.334-16.861 1.091 1.091 0 0 0 .248.103c.254-.019.492-.128.672-.308 13.55-12.83 21.515-21.622 21.515-28.602a8.03 8.03 0 0 0-.431-2.85 10.957 10.957 0 0 0 3.845.83l-.015.004a11.219 11.219 0 0 0 5.183-1.45.775.775 0 0 0 .004.001.835.835 0 0 0 .617-.055 9.398 9.398 0 0 0 2.07-1.652 10.873 10.873 0 0 0 3.258-7.758 10.873 10.873 0 0 0-3.257-7.758.93.93 0 0 0-.118-.091 11.045 11.045 0 0 0-7.656-3.078zm-.087 1.772a9.27 9.27 0 0 1 5.586 1.914l-8.068 8.117a.84.84 0 0 0-.076.098.83.83 0 0 0-.239.55.832.832 0 0 0 .313.65h.002l6.1 6.1a9.044 9.044 0 0 1-10.028-1.913c-2.586-2.6-3.336-6.504-1.953-9.891 1.383-3.39 4.68-5.605 8.363-5.625zm7.12 3.432a8.87 8.87 0 0 1 2.033 5.674 9.15 9.15 0 0 1-2.688 6.464 9.989 9.989 0 0 1-1.098.895L92.307 36.7l-.963-.963.265-.265 7.373-6.96zm-.366 4.193a.777.777 0 0 0-.55.031.731.731 0 0 0-.36.426.73.73 0 0 0 .05.559 2.226 2.226 0 0 1-.257 2.328.64.64 0 0 0-.195.488c.004.184.07.36.195.492a.58.58 0 0 0 .414 0 .68.68 0 0 0 .672-.207 3.573 3.573 0 0 0 .465-3.777v.004a.777.777 0 0 0-.434-.344zM79.34 39.43a5.584 5.584 0 0 1 3.31 1.226 4.756 4.756 0 0 0-2.681 1.34L57.162 64.701l-4.476-4.476c11.828-11.772 19.06-17.921 23.556-19.936a5.584 5.584 0 0 1 3.098-.86zm3.965 2.96a2.895 2.895 0 0 1 2.043.844 2.786 2.786 0 0 1 .879 2.121 2.869 2.869 0 0 1-.985 2.07l-24.25 21.106-2.617-2.617 22.887-22.68a2.895 2.895 0 0 1 2.043-.843zm2.994 6.698c-1.69 6.702-10.647 15.783-19.987 24.607l-3.777-3.773L86.3 49.088zM51.367 61.547l.274.27 3.513 3.513-9.63 2.06 5.843-5.843zm5.793 5.84.004.004 1.168 1.195a1.086 1.086 0 0 0 .018.084l.078.012.248.254.82.84-5.385.66 3.05-3.05zm3.867 4.076 3.578 3.576A126.992 126.992 0 0 1 38.75 91.695a1.44 1.44 0 0 0-.777 1.653l1.035 4.5a.31.31 0 0 1 0 .363.31.31 0 0 1-.414 0l-6.102-6.152L51.3 72.975l9.728-1.512zm-29.933 21.94.869.814 4.492 4.492-10.016-.648 4.655-4.659z"/></symbol>
  <symbol id="skill-vscode" viewBox="0 0 128 128"><mask id="skill-vscode-a" width="128" height="128" x="0" y="0" maskUnits="userSpaceOnUse" style="mask-type:alpha"><path fill="#fff" fill-rule="evenodd" d="M90.767 127.126a7.968 7.968 0 0 0 6.35-.244l26.353-12.681a8 8 0 0 0 4.53-7.209V21.009a8 8 0 0 0-4.53-7.21L97.117 1.12a7.97 7.97 0 0 0-9.093 1.548l-50.45 46.026L15.6 32.013a5.328 5.328 0 0 0-6.807.302l-7.048 6.411a5.335 5.335 0 0 0-.006 7.888L20.796 64 1.74 81.387a5.336 5.336 0 0 0 .006 7.887l7.048 6.411a5.327 5.327 0 0 0 6.807.303l21.974-16.68 50.45 46.025a7.96 7.96 0 0 0 2.743 1.793Zm5.252-92.183L57.74 64l38.28 29.058V34.943Z" clip-rule="evenodd"/></mask><g mask="url(#skill-vscode-a)"><path fill="#0065A9" d="M123.471 13.82 97.097 1.12A7.973 7.973 0 0 0 88 2.668L1.662 81.387a5.333 5.333 0 0 0 .006 7.887l7.052 6.411a5.333 5.333 0 0 0 6.811.303l103.971-78.875c3.488-2.646 8.498-.158 8.498 4.22v-.306a8.001 8.001 0 0 0-4.529-7.208Z"/><g filter="url(#skill-vscode-b)"><path fill="#007ACC" d="m123.471 114.181-26.374 12.698A7.973 7.973 0 0 1 88 125.333L1.662 46.613a5.333 5.333 0 0 1 .006-7.887l7.052-6.411a5.333 5.333 0 0 1 6.811-.303l103.971 78.874c3.488 2.647 8.498.159 8.498-4.219v.306a8.001 8.001 0 0 1-4.529 7.208Z"/></g><g filter="url(#skill-vscode-c)"><path fill="#1F9CF0" d="M97.098 126.882A7.977 7.977 0 0 1 88 125.333c2.952 2.952 8 .861 8-3.314V5.98c0-4.175-5.048-6.266-8-3.313a7.977 7.977 0 0 1 9.098-1.549L123.467 13.8A8 8 0 0 1 128 21.01v85.982a8 8 0 0 1-4.533 7.21l-26.369 12.681Z"/></g><path fill="url(#skill-vscode-d)" fill-rule="evenodd" d="M90.69 127.126a7.968 7.968 0 0 0 6.349-.244l26.353-12.681a8 8 0 0 0 4.53-7.21V21.009a8 8 0 0 0-4.53-7.21L97.039 1.12a7.97 7.97 0 0 0-9.093 1.548l-50.45 46.026-21.974-16.68a5.328 5.328 0 0 0-6.807.302l-7.048 6.411a5.336 5.336 0 0 0-.006 7.888L20.718 64 1.662 81.386a5.335 5.335 0 0 0 .006 7.888l7.048 6.411a5.328 5.328 0 0 0 6.807.303l21.975-16.681 50.45 46.026a7.959 7.959 0 0 0 2.742 1.793Zm5.252-92.184L57.662 64l38.28 29.057V34.943Z" clip-rule="evenodd" opacity="0.25" style="mix-blend-mode:overlay"/></g><defs><filter id="skill-vscode-b" width="144.744" height="113.408" x="-8.41115" y="22.5944" color-interpolation-filters="sRGB" filterUnits="userSpaceOnUse"><feFlood flood-opacity="0" result="BackgroundImageFix"/><feColorMatrix in="SourceAlpha" result="hardAlpha" values="0 0 0 0 0 0 0 0 0 0 0 0 0 0 0 0 0 0 127 0"/><feOffset/><feGaussianBlur stdDeviation="4.16667"/><feColorMatrix values="0 0 0 0 0 0 0 0 0 0 0 0 0 0 0 0 0 0 0.25 0"/><feBlend in2="BackgroundImageFix" mode="overlay" result="effect1_dropShadow_1_36"/><feBlend in="SourceGraphic" in2="effect1_dropShadow_1_36" result="shape"/></filter><filter id="skill-vscode-c" width="56.6667" height="144.007" x="79.6667" y="-8.0035" color-interpolation-filters="sRGB" filterUnits="userSpaceOnUse"><feFlood flood-opacity="0" result="BackgroundImageFix"/><feColorMatrix in="SourceAlpha" result="hardAlpha" values="0 0 0 0 0 0 0 0 0 0 0 0 0 0 0 0 0 0 127 0"/><feOffset/><feGaussianBlur stdDeviation="4.16667"/><feColorMatrix values="0 0 0 0 0 0 0 0 0 0 0 0 0 0 0 0 0 0 0.25 0"/><feBlend in2="BackgroundImageFix" mode="overlay" result="effect1_dropShadow_1_36"/><feBlend in="SourceGraphic" in2="effect1_dropShadow_1_36" result="shape"/></filter><linearGradient id="skill-vscode-d" x1="63.9222" x2="63.9222" y1="0.329902" y2="127.67" gradientUnits="userSpaceOnUse"><stop stop-color="#fff"/><stop offset="1" stop-color="#fff" stop-opacity="0"/></linearGradient></defs></symbol>
  <symbol id="skill-trello" viewBox="0 0 128 128"><defs><linearGradient id="skill-trello-a" x1="128" x2="128" y1="0" y2="256" gradientTransform="scale(.5)" gradientUnits="userSpaceOnUse"><stop offset="0" stop-color="#2684ff"/><stop offset="1" stop-color="#0052cc"/></linearGradient></defs><path fill="url(#skill-trello-a)" d="M12.5 0h103c6.925 0 12.5 5.575 12.5 12.5v103c0 6.925-5.575 12.5-12.5 12.5h-103C5.575 128 0 122.425 0 115.5v-103C0 5.575 5.575 0 12.5 0Z"/><path fill="#fff" d="M78.32 16.64h27.04c3.324 0 6 2.676 6 6v44c0 3.324-2.676 6-6 6H78.32c-3.324 0-6-2.676-6-6v-44c0-3.324 2.676-6 6-6zm-55.68 0h27.04c3.324 0 6 2.676 6 6v76c0 3.324-2.676 6-6 6H22.64c-3.324 0-6-2.676-6-6v-76c0-3.324 2.676-6 6-6z"/></symbol>
  <symbol id="skill-angular" viewBox="0 0 128 128"><linearGradient id="skill-angular-a" x1="14.704" x2="110.985" y1="46.27" y2="92.024" gradientTransform="matrix(1 0 0 -1 0 130)" gradientUnits="userSpaceOnUse"><stop offset="0" stop-color="#e40035"/><stop offset=".24" stop-color="#f60a48"/><stop offset=".352" stop-color="#f20755"/><stop offset=".494" stop-color="#dc087d"/><stop offset=".745" stop-color="#9717e7"/><stop offset="1" stop-color="#6c00f5"/></linearGradient><path fill="url(#skill-angular-a)" d="m124.5 21.3-4.4 68.6L78.3 0l46.2 21.3zm-29 88.7L64 128l-31.5-18 6.4-15.5h50.3l6.3 15.5zM64 34.1l16.5 40.2h-33L64 34.1zM7.9 89.9 3.5 21.3 49.7 0 7.9 89.9z"/><linearGradient id="skill-angular-b" x1="28.733" x2="91.742" y1="117.071" y2="45.195" gradientTransform="matrix(1 0 0 -1 0 130)" gradientUnits="userSpaceOnUse"><stop offset="0" stop-color="#ff31d9"/><stop offset="1" stop-color="#ff5be1" stop-opacity="0"/></linearGradient><path fill="url(#skill-angular-b)" d="m124.5 21.3-4.4 68.6L78.3 0l46.2 21.3zm-29 88.7L64 128l-31.5-18 6.4-15.5h50.3l6.3 15.5zM64 34.1l16.5 40.2h-33L64 34.1zM7.9 89.9 3.5 21.3 49.7 0 7.9 89.9z"/></symbol>
  <symbol id="skill-reactnative" viewBox="0 0 128 128"><path fill="#61dafb" d="M37.965 6.934c-2.12.072-4.14.588-5.965 1.64-3.648 2.106-5.826 5.97-6.805 10.543-.978 4.574-.875 10.013.1 16.1.376 2.347.926 4.815 1.562 7.338-2.503.71-4.916 1.47-7.136 2.318-5.76 2.2-10.52 4.83-13.992 7.965C2.256 55.972 0 59.788 0 64c0 4.212 2.256 8.03 5.729 11.164C9.2 78.3 13.96 80.93 19.72 83.13c2.22.848 4.633 1.606 7.136 2.317-.636 2.523-1.186 4.991-1.562 7.337-.975 6.09-1.076 11.527-.098 16.1.98 4.575 3.155 8.438 6.803 10.544s8.08 2.06 12.531.62c4.45-1.44 9.11-4.247 13.895-8.136 1.844-1.498 3.707-3.206 5.575-5.02 1.866 1.814 3.73 3.522 5.574 5.02 4.784 3.89 9.442 6.697 13.893 8.137 4.45 1.44 8.885 1.485 12.533-.62 3.648-2.107 5.826-5.97 6.805-10.544.978-4.574.873-10.012-.102-16.1-.376-2.347-.924-4.815-1.56-7.338 2.503-.71 4.916-1.47 7.136-2.317 5.76-2.199 10.52-4.83 13.992-7.965C125.744 72.03 128 68.212 128 64s-2.256-8.028-5.729-11.162c-3.472-3.134-8.232-5.766-13.992-7.965-2.22-.847-4.631-1.608-7.134-2.318.636-2.523 1.184-4.992 1.56-7.338.975-6.087 1.076-11.526.098-16.1-.978-4.575-3.154-8.437-6.803-10.543-3.648-2.105-8.08-2.06-12.531-.62-4.45 1.44-9.11 4.248-13.895 8.136-1.844 1.5-3.71 3.208-5.577 5.022-1.867-1.813-3.73-3.523-5.574-5.022-4.783-3.888-9.439-6.698-13.889-8.138-2.226-.72-4.448-1.09-6.57-1.02zm.256 5.545c1.33-.038 2.854.207 4.6.77 3.49 1.13 7.675 3.57 12.093 7.16 1.702 1.382 3.443 2.982 5.197 4.69-3.664 3.96-7.298 8.463-10.814 13.434-6.063.56-11.78 1.456-17.043 2.65-.6-2.374-1.116-4.68-1.463-6.847-.9-5.62-.92-10.465-.152-14.053.767-3.587 2.202-5.767 4.144-6.888.971-.56 2.108-.88 3.438-.916zm51.559 0c1.33.037 2.467.355 3.438.916 1.942 1.12 3.377 3.3 4.144 6.887.768 3.587.75 8.433-.15 14.054-.347 2.165-.862 4.474-1.463 6.846-5.262-1.193-10.98-2.09-17.045-2.649-3.516-4.97-7.152-9.474-10.816-13.435 1.754-1.707 3.497-3.308 5.199-4.69 4.418-3.592 8.603-6.028 12.094-7.158 1.745-.564 3.27-.808 4.6-.77zM64 29.102a123.445 123.445 0 0 1 7.44 8.926c-2.444-.11-4.917-.184-7.44-.184-2.522 0-4.995.073-7.44.184A123.44 123.44 0 0 1 64 29.102zm0 14.308c3.985 0 7.87.157 11.634.44a154.962 154.962 0 0 1 6.199 9.853A154.967 154.967 0 0 1 87.267 64a155.063 155.063 0 0 1-5.434 10.295 155.064 155.064 0 0 1-6.2 9.856c-3.763.283-7.648.441-11.632.441a155.301 155.301 0 0 1-11.638-.44 155.034 155.034 0 0 1-6.197-9.857 154.937 154.937 0 0 1-5.434-10.293 155.031 155.031 0 0 1 5.436-10.297 155.107 155.107 0 0 1 6.2-9.855 155.16 155.16 0 0 1 11.633-.44zm-18.773 1.163a164.291 164.291 0 0 0-3.88 6.35 164.27 164.27 0 0 0-3.56 6.534 123.471 123.471 0 0 1-4.012-10.906c3.59-.8 7.412-1.47 11.452-1.978zm37.547 0a123.501 123.501 0 0 1 11.452 1.978 123.463 123.463 0 0 1-4.012 10.908 164.214 164.214 0 0 0-3.56-6.537 164.291 164.291 0 0 0-3.88-6.35zm-54.409 3.341c1.598 5.154 3.681 10.554 6.23 16.084-2.55 5.532-4.63 10.934-6.23 16.088-2.355-.665-4.61-1.374-6.66-2.156-5.319-2.03-9.524-4.438-12.248-6.898-2.723-2.458-3.893-4.79-3.893-7.033 0-2.242 1.17-4.572 3.893-7.03 2.724-2.46 6.93-4.867 12.248-6.897 2.05-.783 4.305-1.493 6.66-2.159zm71.27 0c2.356.666 4.612 1.376 6.66 2.16 5.32 2.03 9.525 4.436 12.249 6.895 2.723 2.46 3.893 4.79 3.893 7.031 0 2.243-1.17 4.575-3.893 7.033-2.724 2.46-6.93 4.866-12.248 6.897-2.05.782-4.307 1.49-6.662 2.156-1.598-5.153-3.68-10.553-6.227-16.084 2.549-5.532 4.63-10.933 6.229-16.088zM64 52.592A11.41 11.41 0 0 0 52.592 64a11.41 11.41 0 0 0 11.409 11.408A11.41 11.41 0 0 0 75.409 64 11.41 11.41 0 0 0 64 52.592Zm26.214 17.951a123.521 123.521 0 0 1 4.01 10.908c-3.588.8-7.41 1.471-11.448 1.98a164.295 164.295 0 0 0 3.877-6.353 164.27 164.27 0 0 0 3.56-6.535zm-52.427.002a164.17 164.17 0 0 0 3.56 6.533 165.81 165.81 0 0 0 3.88 6.352 123.431 123.431 0 0 1-11.452-1.979 123.474 123.474 0 0 1 4.012-10.906zM32.252 86.82c5.262 1.192 10.98 2.087 17.045 2.646 3.516 4.973 7.152 9.477 10.816 13.44-1.754 1.705-3.495 3.305-5.197 4.69-4.418 3.59-8.607 6.03-12.098 7.16-3.49 1.128-6.095.973-8.037-.148-1.942-1.122-3.375-3.3-4.142-6.887-.768-3.588-.749-8.433.152-14.056.347-2.165.86-4.473 1.461-6.845zm63.495 0c.6 2.372 1.116 4.68 1.463 6.845.9 5.623.92 10.468.152 14.056-.767 3.588-2.202 5.767-4.144 6.89-1.942 1.12-4.546 1.273-8.037.143-3.491-1.13-7.676-3.57-12.094-7.16-1.701-1.383-3.444-2.983-5.197-4.69 3.664-3.96 7.298-8.466 10.814-13.438 6.063-.559 11.78-1.454 17.043-2.646zM56.56 89.972a164.301 164.301 0 0 0 7.441.186 164.301 164.301 0 0 0 7.442-.186 123.436 123.436 0 0 1-7.442 8.93 123.432 123.432 0 0 1-7.44-8.93z"/></symbol>
  <symbol id="skill-java" viewBox="0 0 128 128"><path fill="#0074BD" d="M47.617 98.12s-4.767 2.774 3.397 3.71c9.892 1.13 14.947.968 25.845-1.092 0 0 2.871 1.795 6.873 3.351-24.439 10.47-55.308-.607-36.115-5.969zm-2.988-13.665s-5.348 3.959 2.823 4.805c10.567 1.091 18.91 1.18 33.354-1.6 0 0 1.993 2.025 5.132 3.131-29.542 8.64-62.446.68-41.309-6.336z"/><path fill="#EA2D2E" d="M69.802 61.271c6.025 6.935-1.58 13.17-1.58 13.17s15.289-7.891 8.269-17.777c-6.559-9.215-11.587-13.792 15.635-29.58 0 .001-42.731 10.67-22.324 34.187z"/><path fill="#0074BD" d="M102.123 108.229s3.529 2.91-3.888 5.159c-14.102 4.272-58.706 5.56-71.094.171-4.451-1.938 3.899-4.625 6.526-5.192 2.739-.593 4.303-.485 4.303-.485-4.953-3.487-32.013 6.85-13.743 9.815 49.821 8.076 90.817-3.637 77.896-9.468zM49.912 70.294s-22.686 5.389-8.033 7.348c6.188.828 18.518.638 30.011-.326 9.39-.789 18.813-2.474 18.813-2.474s-3.308 1.419-5.704 3.053c-23.042 6.061-67.544 3.238-54.731-2.958 10.832-5.239 19.644-4.643 19.644-4.643zm40.697 22.747c23.421-12.167 12.591-23.86 5.032-22.285-1.848.385-2.677.72-2.677.72s.688-1.079 2-1.543c14.953-5.255 26.451 15.503-4.823 23.725 0-.002.359-.327.468-.617z"/><path fill="#EA2D2E" d="M76.491 1.587S89.459 14.563 64.188 34.51c-20.266 16.006-4.621 25.13-.007 35.559-11.831-10.673-20.509-20.07-14.688-28.815C58.041 28.42 81.722 22.195 76.491 1.587z"/><path fill="#0074BD" d="M52.214 126.021c22.476 1.437 57-.8 57.817-11.436 0 0-1.571 4.032-18.577 7.231-19.186 3.612-42.854 3.191-56.887.874 0 .001 2.875 2.381 17.647 3.331z"/></symbol>
  <symbol id="skill-chakraui" viewBox="0 0 128 128"><defs><linearGradient id="skill-chakraui-a" x1="64" x2="64" y1="0" y2="128" gradientUnits="userSpaceOnUse"><stop offset="0" stop-color="#7acbd4"/><stop offset="1" stop-color="#29c6b7"/></linearGradient></defs><circle cx="64" cy="64" r="64" fill="url(#skill-chakraui-a)"/><path fill="#fff" d="M93.56 57.89a.913.913 0 0 0-.67-1.54H64.87c-1.71 0-1.43-.92-.82-2.04.61-1.13 16.11-29.4 16.11-29.4.07-.15.11-.3.11-.47a1.082 1.082 0 0 0-1.84-.77S34.5 67.45 34.5 67.45c-.19.18-.3.42-.3.7 0 .53.43.96.96.96h29.97c1.88 0 1.21 1.08.75 1.71-.46.63-23.15 32-23.15 32a1.129 1.129 0 0 0 .9 1.81c.31 0 .59-.12.79-.32s49.13-46.38 49.13-46.38l.01-.01.02-.02Z"/></symbol>
  <symbol id="skill-threejs" viewBox="0 0 128 128"><g color="#000" font-weight="400" font-family="sans-serif"><path style="line-height:normal;font-variant-ligatures:normal;font-variant-position:normal;font-variant-caps:normal;font-variant-numeric:normal;font-variant-alternates:normal;font-variant-east-asian:normal;font-feature-settings:normal;font-variation-settings:normal;text-indent:0;text-align:start;text-decoration-line:none;text-decoration-style:solid;text-decoration-color:#000;text-transform:none;text-orientation:mixed;white-space:normal;shape-padding:0;shape-margin:0;inline-size:0;isolation:auto;mix-blend-mode:normal;solid-color:#000;solid-opacity:1" d="M16.219 15.762a1.129 1.129 0 00-1.076 1.399l24.394 98.742a1.129 1.129 0 001.879.544l73.386-70.59a1.129 1.129 0 00-.47-1.899L16.55 15.806a1.129 1.129 0 00-.331-.044zm1.584 2.754l94.024 27.07-70.566 67.877-23.458-94.947z" overflow="visible"/><path style="line-height:normal;font-variant-ligatures:normal;font-variant-position:normal;font-variant-caps:normal;font-variant-numeric:normal;font-variant-alternates:normal;font-variant-east-asian:normal;font-feature-settings:normal;font-variation-settings:normal;text-indent:0;text-align:start;text-decoration-line:none;text-decoration-style:solid;text-decoration-color:#000;text-transform:none;text-orientation:mixed;white-space:normal;shape-padding:0;shape-margin:0;inline-size:0;isolation:auto;mix-blend-mode:normal;solid-color:#000;solid-opacity:1" d="M65.137 29.84a1.129 1.129 0 00-.807.315L27.654 65.46a1.129 1.129 0 00.471 1.898L76.984 81.44a1.129 1.129 0 001.409-1.355L66.21 30.698a1.129 1.129 0 00-1.073-.858zm-.651 3.3L75.734 78.73l-45.104-13L64.486 33.14z" overflow="visible"/><path style="line-height:normal;font-variant-ligatures:normal;font-variant-position:normal;font-variant-caps:normal;font-variant-numeric:normal;font-variant-alternates:normal;font-variant-east-asian:normal;font-feature-settings:normal;font-variation-settings:normal;text-indent:0;text-align:start;text-decoration-line:none;text-decoration-style:solid;text-decoration-color:#000;text-transform:none;text-orientation:mixed;white-space:normal;shape-padding:0;shape-margin:0;inline-size:0;isolation:auto;mix-blend-mode:normal;solid-color:#000;solid-opacity:1" d="M46.914 47.313a1.129 1.129 0 00-1.076 1.399l6.054 24.531a1.129 1.129 0 001.88.543l18.222-17.563a1.129 1.129 0 00-.472-1.898l-24.277-6.968a1.129 1.129 0 00-.331-.044zm1.583 2.751l20.522 5.89L53.614 70.8l-5.117-20.736z" overflow="visible"/><path style="line-height:normal;font-variant-ligatures:normal;font-variant-position:normal;font-variant-caps:normal;font-variant-numeric:normal;font-variant-alternates:normal;font-variant-east-asian:normal;font-feature-settings:normal;font-variation-settings:normal;text-indent:0;text-align:start;text-decoration-line:none;text-decoration-style:solid;text-decoration-color:#000;text-transform:none;text-orientation:mixed;white-space:normal;shape-padding:0;shape-margin:0;inline-size:0;isolation:auto;mix-blend-mode:normal;solid-color:#000;solid-opacity:1" d="M40.902 22.809a1.129 1.129 0 00-.807.316L21.873 40.687a1.129 1.129 0 00.472 1.898l24.273 6.969a1.129 1.129 0 001.408-1.356l-6.051-24.53a1.129 1.129 0 00-1.073-.86zm-.65 3.3l5.114 20.736-20.517-5.89 15.403-14.847zM89.453 36.793a1.129 1.129 0 00-.806.316L70.423 54.67a1.129 1.129 0 00.472 1.899l24.274 6.968a1.129 1.129 0 001.408-1.356l-6.05-24.53a1.129 1.129 0 00-1.074-.859zm-.65 3.3l5.114 20.737L73.4 54.94l15.403-14.846zM52.944 71.864a1.129 1.129 0 00-.74.315L33.982 89.742a1.129 1.129 0 00.472 1.898l24.278 6.968a1.129 1.129 0 001.407-1.355l-6.055-24.531a1.129 1.129 0 00-1.14-.858zm-.582 3.3l5.118 20.737-20.522-5.89 15.404-14.846z" overflow="visible"/></g></symbol>
</svg>
